<?xml version="1.0" encoding="UTF-8" standalone="no"?>
<!-- Created with Inkscape (http://www.inkscape.org/) -->

<svg
   xmlns:dc="http://purl.org/dc/elements/1.1/"
   xmlns:cc="http://creativecommons.org/ns#"
   xmlns:rdf="http://www.w3.org/1999/02/22-rdf-syntax-ns#"
   xmlns:svg="http://www.w3.org/2000/svg"
   xmlns="http://www.w3.org/2000/svg"
   xmlns:sodipodi="http://sodipodi.sourceforge.net/DTD/sodipodi-0.dtd"
   xmlns:inkscape="http://www.inkscape.org/namespaces/inkscape"
   version="1.1"
   id="svg4575"
   width="237.63934"
   height="237.63934"
   viewBox="0 0 237.63934 237.63934"
   sodipodi:docname="FF_150_centered.svg"
   inkscape:version="0.92.3 (2405546, 2018-03-11)"
   inkscape:export-filename="C:\Users\liadm\Projects\KeepCurrent\WebApp\src\assets\logo\FF_150_centered.png"
   inkscape:export-xdpi="96"
   inkscape:export-ydpi="96">
  <metadata
     id="metadata4581">
    <rdf:RDF>
      <cc:Work
         rdf:about="">
        <dc:format>image/svg+xml</dc:format>
        <dc:type
           rdf:resource="http://purl.org/dc/dcmitype/StillImage" />
        <dc:title />
      </cc:Work>
    </rdf:RDF>
  </metadata>
  <defs
     id="defs4579" />
  <sodipodi:namedview
     pagecolor="#ffffff"
     bordercolor="#666666"
     borderopacity="1"
     objecttolerance="10"
     gridtolerance="10"
     guidetolerance="10"
     inkscape:pageopacity="0"
     inkscape:pageshadow="2"
     inkscape:window-width="3840"
     inkscape:window-height="2035"
     id="namedview4577"
     showgrid="false"
     inkscape:zoom="1.9862031"
     inkscape:cx="25.410184"
     inkscape:cy="116.76129"
     inkscape:window-x="-13"
     inkscape:window-y="-13"
     inkscape:window-maximized="1"
     inkscape:current-layer="svg4575" />
  <path
     style="fill:#ff91ba;fill-opacity:1;stroke-width:1.00694633"
     d="m 120.47185,151.38843 c -0.45212,-54.383463 0.11971,-97.422059 1.29439,-97.422059 0.57276,0 3.5206,1.58594 6.55076,3.524312 3.03016,1.938372 5.78305,3.524312 6.11752,3.524312 0.33448,0 3.96676,2.039067 8.07174,4.531259 4.10498,2.492192 7.65815,4.531259 7.89595,4.531259 0.39667,0 17.14334,9.823596 20.64209,12.108647 0.83073,0.542555 2.41667,1.432782 3.52431,1.978283 2.80605,1.381946 11.61519,6.450516 24.08134,13.855834 5.8269,3.461383 10.84028,6.293413 11.14083,6.293413 0.30055,0 4.16155,2.26563 8.58,5.03473 4.41845,2.76911 8.37834,5.04888 8.79976,5.06616 0.42143,0.0173 2.52066,1.10956 4.66496,2.42729 l 3.89874,2.39586 -3.89874,2.43694 c -2.1443,1.34031 -7.07061,4.16705 -10.94736,6.28163 -3.87674,2.11459 -9.81634,5.58976 -13.19911,7.72261 -3.38277,2.13285 -6.66794,3.87791 -7.30037,3.87791 -0.63242,0 -1.14986,0.45312 -1.14986,1.00694 0,0.55382 -0.46354,1.00695 -1.03008,1.00695 -0.98464,0 -17.05591,8.94053 -18.10191,10.07018 -0.27691,0.29906 -1.63628,1.08563 -3.02083,1.74794 -1.38456,0.6623 -4.783,2.57289 -7.5521,4.24575 -2.7691,1.67286 -5.68073,3.35313 -6.47029,3.73392 -0.78956,0.38079 -6.45363,3.60463 -12.58683,7.16409 -18.03232,10.46524 -28.504,16.33681 -29.13592,16.33681 -0.32485,0 -0.7159,-15.06643 -0.86899,-33.48097 z"
     id="path4585"
     inkscape:connector-curvature="0"
     inkscape:export-xdpi="96"
     inkscape:export-ydpi="96" />
  <path
     style="fill:#ff91ba;fill-opacity:1;stroke-width:1.00694633"
     d="m 1.8773141,119.32315 c 0,-36.500051 0.290878,-66.363726 0.646396,-66.363726 0.355518,0 3.414118,1.732909 6.796888,3.850909 3.3827709,2.118 6.8301809,4.162928 7.6609119,4.544283 0.83073,0.381356 3.322923,1.735322 5.538205,3.008814 6.693011,3.84759 31.00574,17.993288 34.236176,19.919385 1.661462,0.990621 5.059906,2.843802 7.552098,4.118181 2.492192,1.274378 4.757822,2.561323 5.034732,2.859877 1.073324,1.157214 22.154699,13.052817 23.132188,13.052817 0.568988,0 1.034525,0.45313 1.034525,1.00695 0,0.55382 0.445145,1.00694 0.989211,1.00694 0.544065,0 3.855466,1.75435 7.358665,3.89854 3.50319,2.1442 7.36275,4.2138 8.57677,4.59912 1.21404,0.38531 2.20733,1.07032 2.20733,1.52222 0,0.45191 0.99409,1.08161 2.20908,1.39934 2.15849,0.56446 2.16644,0.62479 0.3474,2.63481 -1.02391,1.13141 -2.23658,2.05712 -2.69481,2.05712 -0.45823,0 -3.79443,1.8125 -7.41377,4.02778 -3.61933,2.21528 -6.863513,4.02779 -7.209277,4.02779 -0.345763,0 -3.396382,1.74688 -6.779152,3.88195 -3.38277,2.13507 -7.170025,4.20467 -8.416121,4.59911 -1.246096,0.39444 -2.265629,1.13976 -2.265629,1.65626 0,0.5165 -0.463536,0.93909 -1.03008,0.93909 -0.895276,0 -11.679255,6.10192 -19.917194,11.26978 -1.493782,0.93709 -4.981595,2.87899 -7.750698,4.31535 -2.769102,1.43636 -6.394109,3.4967 -8.055571,4.57854 -1.661461,1.08183 -3.700527,2.28241 -4.531258,2.66794 -0.830731,0.38554 -4.350437,2.42959 -7.82157,4.54235 -3.471133,2.11276 -6.51366,3.84138 -6.761173,3.84138 -0.247512,0 -3.80864,2.03906 -7.913619,4.53125 -4.104979,2.4922 -7.9726209,4.53126 -8.5947599,4.53126 -0.622139,0 -1.134698,0.33985 -1.139019,0.75521 -0.0043,0.41537 -1.137135,1.27899 -2.517365,1.91915 l -2.50951,1.16395 z"
     id="path4587"
     inkscape:connector-curvature="0"
     inkscape:export-xdpi="96"
     inkscape:export-ydpi="96" />
</svg>
