<?xml version="1.0" encoding="UTF-8" standalone="no"?>
<!-- Created with Inkscape (http://www.inkscape.org/) -->

<svg
   xmlns:dc="http://purl.org/dc/elements/1.1/"
   xmlns:cc="http://creativecommons.org/ns#"
   xmlns:rdf="http://www.w3.org/1999/02/22-rdf-syntax-ns#"
   xmlns:svg="http://www.w3.org/2000/svg"
   xmlns="http://www.w3.org/2000/svg"
   xmlns:sodipodi="http://sodipodi.sourceforge.net/DTD/sodipodi-0.dtd"
   xmlns:inkscape="http://www.inkscape.org/namespaces/inkscape"
   width="237.45111mm"
   height="84.956955mm"
   viewBox="0 0 841.3622 301.02858"
   id="svg2"
   version="1.1"
   inkscape:version="0.92.3 (2405546, 2018-03-11)"
   sodipodi:docname="KeepCurrentLogo_pink.svg"
   inkscape:export-filename="C:\Users\liadm\Projects\KeepCurrent\WebApp\src\assets\logo\KeepCurrentLogo_pink.png"
   inkscape:export-xdpi="96"
   inkscape:export-ydpi="96">
  <defs
     id="defs4" />
  <sodipodi:namedview
     id="base"
     pagecolor="#ffffff"
     bordercolor="#666666"
     borderopacity="1.0"
     inkscape:pageopacity="0.0"
     inkscape:pageshadow="2"
     inkscape:zoom="1"
     inkscape:cx="331.31426"
     inkscape:cy="-131.60832"
     inkscape:document-units="px"
     inkscape:current-layer="layer1"
     showgrid="true"
     showguides="false"
     inkscape:window-width="3840"
     inkscape:window-height="2035"
     inkscape:window-x="-13"
     inkscape:window-y="-13"
     inkscape:window-maximized="1"
     fit-margin-top="0"
     fit-margin-left="0"
     fit-margin-right="0"
     fit-margin-bottom="0">
    <inkscape:grid
       type="xygrid"
       id="grid4214"
       originx="-93.905841"
       originy="-638.61522" />
  </sodipodi:namedview>
  <metadata
     id="metadata7">
    <rdf:RDF>
      <cc:Work
         rdf:about="">
        <dc:format>image/svg+xml</dc:format>
        <dc:type
           rdf:resource="http://purl.org/dc/dcmitype/StillImage" />
        <dc:title />
      </cc:Work>
    </rdf:RDF>
  </metadata>
  <g
     inkscape:label="Layer 1"
     inkscape:groupmode="layer"
     id="layer1"
     transform="translate(-93.90584,-112.71844)">
    <g
       style="font-style:normal;font-weight:normal;font-size:40px;line-height:125%;font-family:sans-serif;letter-spacing:0px;word-spacing:0px;fill:#000000;fill-opacity:1;stroke:none;stroke-width:1px;stroke-linecap:butt;stroke-linejoin:miter;stroke-opacity:1"
       id="text3348"
       transform="translate(-0.78558561,23.499099)">
      <path
         d="m 136.72285,155.99935 -25.74,26.1 v 33.12 H 97.662853 V 89.219345 h 13.319997 v 76.140005 l 73.98,-76.140005 h 15.3 l -54.54,57.060005 58.32,68.94 h -15.84 z"
         style="font-style:normal;font-variant:normal;font-weight:normal;font-stretch:normal;font-size:180px;line-height:125%;font-family:'Montserrat Alternates';-inkscape-font-specification:'Montserrat Alternates, Normal';text-align:start;writing-mode:lr-tb;text-anchor:start;fill:#000000;fill-opacity:1"
         id="path4171"
         inkscape:connector-curvature="0" />
      <path
         d="m 259.21285,204.77935 q 8.82,0 16.2,-3.06 7.56,-3.24 12.78,-9.36 l 7.2,8.28 q -6.3,7.56 -15.66,11.52 -9.36,3.96 -20.7,3.96 -14.58,0 -25.92,-6.12 -11.34,-6.3 -17.64,-17.28 -6.3,-10.98 -6.3,-24.84 0,-13.86 5.94,-24.84 6.12,-10.98 16.74,-17.1 10.62,-6.12 24.12,-6.12 12.6,0 22.68,5.76 10.26,5.76 16.2,16.02 6.12,10.26 6.48,23.4 l -77.76,15.12 q 3.6,11.52 12.96,18.18 9.54,6.48 22.68,6.48 z m -3.24,-73.98 q -9.9,0 -17.82,4.68 -7.74,4.5 -12.24,12.78 -4.32,8.1 -4.32,18.72 0,2.7 0.18,3.96 l 66.78,-12.96 q -2.16,-11.88 -10.98,-19.44 -8.82,-7.74 -21.6,-7.74 z"
         style="font-style:normal;font-variant:normal;font-weight:normal;font-stretch:normal;font-size:180px;line-height:125%;font-family:'Montserrat Alternates';-inkscape-font-specification:'Montserrat Alternates, Normal';text-align:start;writing-mode:lr-tb;text-anchor:start;fill:#000000;fill-opacity:1"
         id="path4173"
         inkscape:connector-curvature="0" />
      <path
         d="m 368.19723,204.77935 q 8.82,0 16.2,-3.06 7.56,-3.24 12.78,-9.36 l 7.2,8.28 q -6.3,7.56 -15.66,11.52 -9.36,3.96 -20.7,3.96 -14.58,0 -25.92,-6.12 -11.34,-6.3 -17.64,-17.28 -6.3,-10.98 -6.3,-24.84 0,-13.86 5.94,-24.84 6.12,-10.98 16.74,-17.1 10.62,-6.12 24.12,-6.12 12.6,0 22.68,5.76 10.26,5.76 16.2,16.02 6.12,10.26 6.48,23.4 l -77.76,15.12 q 3.6,11.52 12.96,18.18 9.54,6.48 22.68,6.48 z m -3.24,-73.98 q -9.9,0 -17.82,4.68 -7.74,4.5 -12.24,12.78 -4.32,8.1 -4.32,18.72 0,2.7 0.18,3.96 l 66.78,-12.96 q -2.16,-11.88 -10.98,-19.44 -8.82,-7.74 -21.6,-7.74 z"
         style="font-style:normal;font-variant:normal;font-weight:normal;font-stretch:normal;font-size:180px;line-height:125%;font-family:'Montserrat Alternates';-inkscape-font-specification:'Montserrat Alternates, Normal';text-align:start;writing-mode:lr-tb;text-anchor:start;fill:#000000;fill-opacity:1"
         id="path4175"
         inkscape:connector-curvature="0" />
      <path
         d="m 485.4616,119.81935 q 13.32,0 24.12,6.12 10.8,5.94 16.92,16.92 6.12,10.98 6.12,25.02 0,14.22 -6.12,25.2 -6.12,10.98 -16.92,17.1 -10.62,5.94 -24.12,5.94 -11.52,0 -20.88,-4.68 -9.18,-4.86 -15.12,-14.04 v 52.74 h -12.78 v -129.6 h 12.24 v 18.72 q 5.76,-9.36 15.12,-14.4 9.54,-5.04 21.42,-5.04 z m -0.9,84.96 q 9.9,0 18,-4.5 8.1,-4.68 12.6,-13.14 4.68,-8.46 4.68,-19.26 0,-10.8 -4.68,-19.08 -4.5,-8.46 -12.6,-13.14 -8.1,-4.68 -18,-4.68 -10.08,0 -18.18,4.68 -7.92,4.68 -12.6,13.14 -4.5,8.28 -4.5,19.08 0,10.8 4.5,19.26 4.68,8.46 12.6,13.14 8.1,4.5 18.18,4.5 z"
         style="font-style:normal;font-variant:normal;font-weight:normal;font-stretch:normal;font-size:180px;line-height:125%;font-family:'Montserrat Alternates';-inkscape-font-specification:'Montserrat Alternates, Normal';text-align:start;writing-mode:lr-tb;text-anchor:start;fill:#000000;fill-opacity:1"
         id="path4177"
         inkscape:connector-curvature="0" />
    </g>
    <g
       style="font-style:normal;font-weight:normal;font-size:40px;line-height:125%;font-family:sans-serif;letter-spacing:0px;word-spacing:0px;fill:#000000;fill-opacity:1;stroke:none;stroke-width:1px;stroke-linecap:butt;stroke-linejoin:miter;stroke-opacity:1"
       id="text4152"
       transform="translate(-0.78558561,3.4990992)">
      <path
         d="m 94.691426,342.92792 q 0,-15.3 5.400004,-27.72 5.4,-12.42 14.76,-21.24 9.36,-8.82 21.96,-13.5 12.78,-4.86 27.18,-4.86 14.76,0 27.9,4.86 13.14,4.68 21.96,12.78 l -26.28,31.68 q -3.6,-4.68 -9,-7.02 -5.4,-2.52 -12.06,-2.52 -5.4,0 -10.08,1.98 -4.68,1.8 -8.28,5.4 -3.42,3.6 -5.4,8.82 -1.98,5.04 -1.98,11.34 0,6.3 1.98,11.34 2.16,4.86 5.58,8.46 3.6,3.6 8.28,5.58 4.68,1.8 9.9,1.8 7.38,0 12.6,-3.06 5.4,-3.06 8.46,-7.2 l 26.28,31.5 q -8.64,8.64 -21.24,13.86 -12.6,5.04 -28.62,5.04 -14.4,0 -27.18,-4.86 -12.6,-4.86 -21.96,-13.68 -9.36,-9 -14.76,-21.24 -5.400004,-12.42 -5.400004,-27.54 z"
         style="font-style:normal;font-variant:normal;font-weight:900;font-stretch:normal;font-size:180px;line-height:125%;font-family:'Avenir Next';-inkscape-font-specification:'Avenir Next, Heavy';text-align:start;writing-mode:lr-tb;text-anchor:start;fill:#000000;fill-opacity:1"
         id="path4182"
         inkscape:connector-curvature="0" />
      <path
         d="m 282.84768,410.24792 q -14.94,0 -26.1,-4.14 -10.98,-4.14 -18.36,-11.34 -7.38,-7.2 -10.98,-16.92 -3.6,-9.9 -3.6,-21.24 v -77.4 h 42.84 v 72.72 q 0,9.18 4.32,14.4 4.5,5.04 12.6,5.04 8.1,0 12.42,-5.04 4.5,-5.22 4.5,-14.4 v -72.72 h 42.66 v 77.4 q 0,11.34 -3.96,21.24 -3.78,9.72 -11.34,16.92 -7.56,7.2 -18.9,11.34 -11.16,4.14 -26.1,4.14 z"
         style="font-style:normal;font-variant:normal;font-weight:900;font-stretch:normal;font-size:180px;line-height:125%;font-family:'Avenir Next';-inkscape-font-specification:'Avenir Next, Heavy';text-align:start;writing-mode:lr-tb;text-anchor:start;fill:#000000;fill-opacity:1"
         id="path4184"
         inkscape:connector-curvature="0" />
      <path
         d="m 590.17799,279.20792 h 87.66 v 35.64 h -47.34 v 10.98 h 44.46 v 33.3 h -44.46 v 11.88 h 50.4 v 35.64 h -90.72 z"
         style="font-style:normal;font-variant:normal;font-weight:900;font-stretch:normal;font-size:180px;line-height:125%;font-family:'Avenir Next';-inkscape-font-specification:'Avenir Next, Heavy';text-align:start;writing-mode:lr-tb;text-anchor:start;fill:#000000;fill-opacity:1"
         id="path4186"
         inkscape:connector-curvature="0" />
      <path
         d="m 698.8108,279.20792 h 42.66 l 36.36,64.62 h 0.72 l -1.8,-64.62 h 40.68 v 127.44 h -43.74 l -35.28,-60.84 h -0.72 l 1.8,60.84 h -40.68 z"
         style="font-style:normal;font-variant:normal;font-weight:900;font-stretch:normal;font-size:180px;line-height:125%;font-family:'Avenir Next';-inkscape-font-specification:'Avenir Next, Heavy';text-align:start;writing-mode:lr-tb;text-anchor:start;fill:#000000;fill-opacity:1"
         id="path4188"
         inkscape:connector-curvature="0" />
      <path
         d="m 904.73361,406.64792 h -42.84 v -91.26 h -31.32 v -36.18 h 105.48 v 36.18 h -31.32 z"
         style="font-style:normal;font-variant:normal;font-weight:900;font-stretch:normal;font-size:180px;line-height:125%;font-family:'Avenir Next';-inkscape-font-specification:'Avenir Next, Heavy';text-align:start;writing-mode:lr-tb;text-anchor:start;fill:#000000;fill-opacity:1"
         id="path4190"
         inkscape:connector-curvature="0" />
    </g>
    <path
       sodipodi:type="star"
       style="fill:#ff91ba;fill-opacity:1"
       id="path4210"
       sodipodi:sides="3"
       sodipodi:cx="384.40109"
       sodipodi:cy="347.44171"
       sodipodi:r1="72.769569"
       sodipodi:r2="36.384785"
       sodipodi:arg1="0"
       sodipodi:arg2="1.0471976"
       inkscape:flatsided="true"
       inkscape:rounded="0"
       inkscape:randomized="0"
       d="m 457.17066,347.44171 -109.15435,63.0203 0,-126.04059 z"
       inkscape:transform-center-x="-18.691839"
       transform="matrix(1.0274538,0,0,-1.0246563,-2.553275,703.45006)" />
    <path
       transform="matrix(1.0274538,0,0,-1.0246563,108.63927,703.62683)"
       inkscape:transform-center-x="-18.691839"
       d="m 457.17066,347.44171 -109.15435,63.0203 0,-126.04059 z"
       inkscape:randomized="0"
       inkscape:rounded="0"
       inkscape:flatsided="true"
       sodipodi:arg2="1.0471976"
       sodipodi:arg1="0"
       sodipodi:r2="36.384785"
       sodipodi:r1="72.769569"
       sodipodi:cy="347.44171"
       sodipodi:cx="384.40109"
       sodipodi:sides="3"
       id="path4216"
       style="fill:#ff91ba;fill-opacity:1"
       sodipodi:type="star" />
  </g>
</svg>
